<svg width="326" height="414" viewBox="0 0 326 414" fill="none" xmlns="http://www.w3.org/2000/svg">
<path d="M93.6807 0C95.8018 0.000167449 97.8368 0.843059 99.3369 2.34277L105.65 8.65625C107.075 10.0814 107.906 11.9891 107.985 13.9951L107.993 14.0029V137.991C107.993 139.096 108.889 139.991 109.993 139.991H214.985C216.09 139.991 216.985 139.096 216.985 137.991V14.0029L216.993 13.9951C217.073 11.9893 217.903 10.0814 219.328 8.65625L225.642 2.34277C227.142 0.843028 229.177 0.000350683 231.298 0H256.669C258.79 6.15884e-05 260.825 0.843112 262.325 2.34277L268.639 8.65625C270.064 10.0814 270.894 11.989 270.974 13.9951L270.981 14.0029V137.991C270.981 139.096 271.877 139.991 272.981 139.991H309.979C318.815 139.991 325.979 147.155 325.979 155.991V289.578C325.979 293.688 324.397 297.641 321.562 300.616L249.713 376.014C246.693 379.182 242.507 380.976 238.13 380.976H190.003L190.021 409.252L189.224 409.253C188.59 410.276 187.611 411.077 186.415 411.481L180.269 413.56C179.445 413.838 178.581 413.981 177.712 413.981L147.331 414C147.13 414 146.929 413.968 146.738 413.903L136.025 410.297L136.007 380.976H87.8486C83.4718 380.975 79.2852 379.182 76.2656 376.014L4.41699 300.616C1.58189 297.641 0 293.688 0 289.578V155.991C0 147.155 7.16373 139.992 16 139.991H51.9971C53.1016 139.991 53.9971 139.096 53.9971 137.991V11.8262C53.9972 11.296 54.2082 10.7871 54.583 10.4121L63.3857 1.61035C64.4168 0.579683 65.8156 0.000292894 67.2734 0H93.6807Z" fill="#25AF60"/>
<path d="M227.295 196.987C229.763 196.987 232.094 198.127 233.61 200.075L239.3 207.391C240.392 208.795 240.985 210.524 240.985 212.303V231.843H240.987V267.843H240.985V281.666C240.985 283.445 240.392 285.173 239.3 286.577L233.61 293.893C232.094 295.841 229.763 296.981 227.295 296.981H206.677C204.209 296.981 201.879 295.841 200.363 293.893L194.674 286.577C193.581 285.173 192.988 283.445 192.988 281.666V267.843H192.986V231.843H192.988V212.303C192.988 210.524 193.58 208.795 194.673 207.391L200.363 200.075C201.879 198.127 204.209 196.987 206.677 196.987H227.295Z" fill="#0B1F26"/>
<path d="M119.309 197C121.777 197 124.108 198.139 125.624 200.088L131.313 207.403C132.406 208.808 132.999 210.536 132.999 212.315V231.855H133.001V267.855H132.999V281.679C132.999 283.458 132.406 285.186 131.313 286.59L125.624 293.905C124.108 295.854 121.777 296.994 119.309 296.994H98.6914C96.2229 296.994 93.8925 295.854 92.377 293.905L86.6875 286.59C85.5953 285.186 85.002 283.458 85.002 281.679V267.855H85.001V231.855H85.002V212.315C85.002 210.536 85.5943 208.808 86.6865 207.403L92.377 200.088C93.8926 198.14 96.223 197 98.6914 197H119.309Z" fill="#0B1F26"/>
<path d="M119.308 213C121.776 213 124.107 214.139 125.623 216.088L131.312 223.403C132.405 224.808 132.998 226.536 132.998 228.315V231.855H133V267.855H132.998V281.679C132.998 283.458 132.405 285.186 131.312 286.59L125.623 293.905C124.107 295.854 121.776 296.994 119.308 296.994H98.6904C96.2219 296.994 93.8916 295.854 92.376 293.905L86.6865 286.59C85.5943 285.186 85.001 283.458 85.001 281.679V267.855H85V231.855H85.001V228.315C85.001 226.536 85.5933 224.808 86.6855 223.403L92.376 216.088C93.8916 214.14 96.222 213 98.6904 213H119.308Z" fill="#0B1F26"/>
</svg>
