<svg width="867" height="422" viewBox="0 0 867 422" fill="none" xmlns="http://www.w3.org/2000/svg">
  <style>
    @keyframes blink {
      0%, 45%, 100% { opacity: 1; }
      50%, 55% { opacity: 0; }
    }
    
    #left-eye, #right-eye {
      animation: blink 4s infinite;
    }
    
    #right-eye {
      animation-delay: 0.2s;
    }
  </style>
  
  <!-- Original SVG content remains unchanged -->
  
  <!-- Add eye elements at the end to ensure they appear on top -->
  <rect id="left-eye" x="219" y="254" width="20" height="20" fill="#0D2A2D"/>
  <rect id="right-eye" x="319" y="254" width="20" height="20" fill="#0D2A2D"/>
</svg>
<path d="M93.6807 0C95.8018 0.000167449 97.8368 0.843059 99.3369 2.34277L105.65 8.65625C107.075 10.0814 107.906 11.9891 107.985 13.9951L107.993 14.0029V137.991C107.993 139.096 108.889 139.991 109.993 139.991H214.985C216.09 139.991 216.985 139.096 216.985 137.991V14.0029L216.993 13.9951C217.073 11.9893 217.903 10.0814 219.328 8.65625L225.642 2.34277C227.142 0.843028 229.177 0.000350683 231.298 0H256.669C258.79 6.15884e-05 260.825 0.843112 262.325 2.34277L268.639 8.65625C270.064 10.0814 270.894 11.989 270.974 13.9951L270.981 14.0029V137.991C270.981 139.096 271.877 139.991 272.981 139.991H309.979C318.815 139.991 325.979 147.155 325.979 155.991V289.578C325.979 293.688 324.397 297.641 321.562 300.616L249.713 376.014C246.693 379.182 242.507 380.976 238.13 380.976H190.003L190.021 409.252L189.224 409.253C188.59 410.276 187.611 411.077 186.415 411.481L180.269 413.56C179.445 413.838 178.581 413.981 177.712 413.981L147.331 414C147.13 414 146.929 413.968 146.738 413.903L136.025 410.297L136.007 380.976H87.8486C83.4718 380.975 79.2852 379.182 76.2656 376.014L4.41699 300.616C1.58189 297.641 0 293.688 0 289.578V155.991C0 147.155 7.16373 139.992 16 139.991H51.9971C53.1016 139.991 53.9971 139.096 53.9971 137.991V11.8262C53.9972 11.296 54.2082 10.7871 54.583 10.4121L63.3857 1.61035C64.4168 0.579683 65.8156 0.000292894 67.2734 0H93.6807ZM97.7168 200.987C95.8313 200.987 94.0228 201.95 92.6895 203.664L87.0771 210.881C85.744 212.595 84.9952 214.92 84.9951 217.345V282.125H85.0938C85.3356 283.992 86.0224 285.732 87.0771 287.088L92.6895 294.304C94.0228 296.018 95.8313 296.981 97.7168 296.981H120.27C122.155 296.981 123.963 296.018 125.297 294.304L130.909 287.088C131.964 285.732 132.651 283.992 132.893 282.125H132.992V217.345C132.992 214.92 132.242 212.595 130.909 210.881L125.297 203.664C123.963 201.95 122.155 200.987 120.27 200.987H97.7168ZM206.678 200.987C204.209 200.987 201.879 202.127 200.363 204.075L194.674 211.391C193.582 212.795 192.988 214.524 192.988 216.303V282.125H193.003C193.096 283.741 193.676 285.294 194.674 286.577L200.363 293.893C201.879 295.841 204.209 296.981 206.678 296.981H227.295C229.763 296.981 232.095 295.841 233.61 293.893L239.3 286.577C240.298 285.294 240.878 283.741 240.971 282.125H240.985V216.303C240.985 214.524 240.392 212.795 239.3 211.391L233.61 204.075C232.095 202.127 229.763 200.987 227.295 200.987H206.678Z" fill="#25AF60"/>
</svg>
