<svg width="86" height="122" viewBox="0 0 86 122" fill="none" xmlns="http://www.w3.org/2000/svg">
<path d="M81.5331 21.9916C81.5378 23.0961 80.6461 23.9953 79.5415 23.9999L26.9711 24.2205C25.8696 24.2251 24.9792 25.1195 24.9795 26.221L24.997 95.1831C24.9973 96.2895 25.8959 97.1855 27.0023 97.1826L59.0075 97.0993C60.1093 97.0964 61.0013 96.2029 61.0023 95.1011L61.0221 73.5091C61.0231 72.4007 60.1226 71.5029 59.0142 71.5072L45.0885 71.5618C43.9839 71.5662 43.0849 70.6742 43.0807 69.5696L42.9867 45.2376C42.9825 44.1331 43.8744 43.2342 44.979 43.2299L82.8823 43.0833C83.9869 43.079 84.8858 43.971 84.89 45.0755L84.9358 56.9624C84.9359 56.9905 84.9586 57.0132 84.9867 57.0135V57.0135C85.0149 57.0138 85.0376 57.0367 85.0376 57.0649L84.9792 120.404C84.9791 120.505 84.897 120.587 84.7959 120.587V120.587C84.6944 120.586 84.6122 120.669 84.6126 120.77L84.6128 120.81C84.6133 120.934 84.5138 121.034 84.3907 121.034L23.0414 121.193C21.9369 121.196 21.0391 120.303 21.0362 119.199L20.9931 102.862C20.9902 101.759 20.0953 100.867 18.9926 100.867L2.99853 100.871C1.89396 100.871 0.998316 99.976 0.998045 98.8714L0.979492 22.9974C0.979222 21.8928 1.87441 20.9972 2.97897 20.9969L17.5161 20.9931C18.6237 20.9928 19.5202 20.0923 19.5155 18.9847L19.4454 2.25224C19.4408 1.14769 20.3324 0.248523 21.437 0.243878L79.4409 -4.29694e-05C80.5455 -0.00468797 81.4447 0.886986 81.4493 1.99156L81.5331 21.9916Z" fill="#25AF60"/>
</svg>
