<svg width="90" height="124" viewBox="0 0 90 124" fill="none" xmlns="http://www.w3.org/2000/svg">
<path d="M89.1999 23.6448C89.2019 24.7493 88.308 25.6464 87.2034 25.6483L58.6504 25.6989C57.5421 25.7008 56.6468 26.6036 56.654 27.7118L57.2569 120.881C57.2641 121.986 56.3744 122.887 55.2698 122.894L33.6223 123.033C32.5178 123.04 31.6166 122.151 31.6095 121.046L31.0054 27.739C30.9983 26.6381 30.1027 25.7499 29.0018 25.7519L3.02188 25.7993C1.91729 25.8014 1.02021 24.9075 1.01824 23.8029L0.979495 2.15454C0.977519 1.04998 1.87134 0.152951 2.9759 0.150969L87.1576 -5.77464e-05C88.2621 -0.00203941 89.1592 0.891789 89.1611 1.99636L89.1999 23.6448Z" fill="#25AF60"/>
</svg>
