<svg width="73" height="113" viewBox="0 0 73 113" fill="none" xmlns="http://www.w3.org/2000/svg">
<path d="M72.3095 65.4793C72.3096 65.6029 72.2094 65.7031 72.0857 65.7031V65.7031C71.9623 65.7031 71.8621 65.8031 71.8619 65.9265L71.8618 65.9746C71.8616 66.125 71.7393 66.2466 71.5889 66.2461L48.0425 66.1633C46.9305 66.1594 46.0289 67.0633 46.0355 68.1752L46.2899 110.875C46.2964 111.98 45.4064 112.88 44.3018 112.887L26.4004 112.994C25.2958 113.001 24.3951 112.11 24.3885 111.006L24.1329 68.0613C24.1264 66.9641 23.2371 66.077 22.1399 66.0732L2.97956 66.0069C1.87497 66.0031 0.982635 65.1045 0.986495 63.9999L0.994155 61.8076L0.979981 2.00583C0.979719 0.90127 1.87492 0.00563231 2.97948 0.00535768L18.6182 0.0014694C19.7227 0.00119477 20.6184 0.896416 20.6187 2.00099L20.6284 43.1852C20.6287 44.2868 21.5198 45.1808 22.6214 45.1847L46.516 45.2684C47.6235 45.2722 48.5232 44.3754 48.523 43.2679L48.5132 2.00583C48.5129 0.901272 49.4081 0.00563432 50.5127 0.00536217L70.2939 0.000488343C71.3985 0.000216191 72.2942 0.895437 72.2944 2.00001L72.3095 65.4793Z" fill="#25AF60"/>
</svg>
