<svg width="87" height="124" viewBox="0 0 87 124" fill="none" xmlns="http://www.w3.org/2000/svg">
<path d="M70.8561 21.1042C70.8589 22.2118 71.7613 23.1063 72.869 23.0992L83.6142 23.0302C84.7187 23.0231 85.6198 23.9127 85.627 25.0172L86.2476 120.924C86.2547 122.028 85.3651 122.929 84.2606 122.937L62.613 123.077C61.5085 123.084 60.6073 122.194 60.6001 121.09L60.3965 89.6881C60.3894 88.5866 59.493 87.6983 58.3915 87.7011L28.0682 87.7779C26.9606 87.7807 26.0662 88.6832 26.0733 89.7908L26.2749 120.945C26.2821 122.05 25.3924 122.951 24.2879 122.958L3.613 123.091C2.50847 123.098 1.60728 122.209 1.60014 121.104L0.979535 25.1988C0.972388 24.0943 1.86196 23.1931 2.96648 23.186L15.0313 23.1074C16.1327 23.1003 17.021 22.204 17.0183 21.1025L16.9715 2.13143C16.9688 1.02693 17.8619 0.129311 18.9664 0.126506L68.8034 -5.4446e-05C69.908 -0.00285958 70.8057 0.890352 70.8085 1.99495L70.8561 21.1042ZM27.6669 25.8453C26.5593 25.8481 25.6648 26.7506 25.672 27.8583L25.8873 61.0936C25.8944 62.1951 26.7908 63.0834 27.8923 63.0806L58.2156 63.0039C59.3232 63.0011 60.2176 62.0986 60.2105 60.991L59.996 27.7565C59.9889 26.655 59.0926 25.7666 57.9911 25.7694L27.6669 25.8453Z" fill="#25AF60"/>
</svg>
