<svg width="87" height="123" viewBox="0 0 87 123" fill="none" xmlns="http://www.w3.org/2000/svg">
<path d="M26.9072 -5.98795e-05C26.9227 -0.00016017 26.937 0.00627389 26.9472 0.0165844C26.9572 0.0266001 26.9602 0.0411221 26.9628 0.055008V0.055008C26.9654 0.0696817 26.9687 0.0851238 26.9796 0.0952831C26.9896 0.104541 27.003 0.110219 27.0176 0.110292L68.9101 0.00482293C70.0147 0.00204938 70.9122 0.895379 70.915 1.99994L70.9658 22.0488C70.9686 23.1533 71.8661 24.0466 72.9707 24.0439L84.7051 24.0146H84.708V24.0146C85.811 24.0119 86.7073 24.9038 86.7101 26.0068L86.7178 29.0038L86.8838 94.7831L86.8952 99.1472C86.898 100.252 86.0048 101.15 84.9002 101.152L72.9219 101.183C71.8191 101.187 70.9279 102.084 70.9306 103.187L70.9736 119.981C70.9764 121.086 70.0831 121.983 68.9785 121.986L27.8037 122.09C27.7902 122.09 27.7781 122.095 27.769 122.104C27.7586 122.113 27.7555 122.128 27.7528 122.142V122.142C27.7503 122.155 27.7473 122.169 27.7376 122.179C27.7282 122.188 27.7152 122.193 27.7012 122.193L2.76951 122.355C1.66497 122.363 0.763959 121.473 0.756818 120.368L-0.00783085 2.17474C-0.0149722 1.07021 0.874938 0.169205 1.97947 0.162049L26.9072 -5.98795e-05ZM29.1455 27.0869C28.0379 27.0897 27.1432 27.992 27.1504 29.0995L27.5644 93.1171C27.5716 94.2186 28.4678 95.1072 29.5693 95.1044L60.1582 95.0263C61.2627 95.0235 62.1561 94.126 62.1533 93.0214L61.9912 29.0038C61.9884 27.8993 61.0909 27.0059 59.9863 27.0087L29.1455 27.0869Z" fill="#25AF60"/>
</svg>
