<svg width="82" height="117" viewBox="0 0 82 117" fill="none" xmlns="http://www.w3.org/2000/svg">
<path d="M81.6111 114.031C81.6182 115.136 80.7286 116.037 79.624 116.044L61.7304 116.16C60.6258 116.167 59.7246 115.277 59.7175 114.173L59.4514 73.1386C59.4443 72.034 58.543 71.1444 57.4385 71.1516L41.1611 71.2574C40.0565 71.2646 39.1553 70.375 39.1481 69.2705L39.0501 54.163C39.0429 53.0584 38.1417 52.1688 37.0371 52.176L25.0936 52.2535C23.9891 52.2607 23.0995 53.1619 23.1067 54.2664L23.4939 114.078C23.501 115.183 22.6114 116.084 21.5068 116.091L3.6132 116.207C2.50866 116.214 1.60746 115.324 1.60031 114.22L0.875226 2.18836C0.868077 1.08381 1.7577 0.18261 2.86225 0.175466L20.7558 0.0597355C21.8604 0.0525915 22.7616 0.942239 22.7687 2.0468L22.8982 22.1377C22.9053 23.2422 23.8065 24.1318 24.9111 24.1247L42.873 24.0089C43.9776 24.0018 44.8788 24.8914 44.8859 25.996L44.9832 41.1024C44.9903 42.207 45.8916 43.0966 46.9962 43.0895L57.2569 43.0227C58.3614 43.0155 59.251 42.1143 59.2439 41.0098L58.9924 2.14149C58.9853 1.03694 59.8749 0.135735 60.9794 0.128591L78.8731 0.0128601C79.9776 0.00571623 80.8788 0.895331 80.886 1.99987L81.6111 114.031Z" fill="#25AF60"/>
</svg>
