<svg width="80" height="118" viewBox="0 0 80 118" fill="none" xmlns="http://www.w3.org/2000/svg">
<path d="M25.5507 0.953705C25.5507 0.98194 25.5737 1.00481 25.6019 1.00476L60.7383 0.938327C61.8428 0.936238 62.7399 1.82997 62.742 2.93454L62.7725 19.0518C62.7746 20.1575 63.6735 21.0517 64.7792 21.048L77.1416 21.0067C78.2462 21.003 79.1446 21.8954 79.1483 22.9999L79.2315 47.8174C79.2352 48.9219 78.3428 49.8204 77.2383 49.8241L64.9249 49.8653C63.8203 49.869 62.9278 50.7675 62.9316 51.8721L62.9697 63.0539C62.9735 64.1584 63.8718 65.0507 64.9763 65.047L77.1417 65.0066C78.2462 65.0029 79.1446 65.8953 79.1483 66.9999L79.3028 112.704C79.3065 113.809 78.4141 114.707 77.3095 114.711L56.1474 114.782C55.0428 114.786 54.1444 113.894 54.1407 112.789L54.0028 72.0761C53.9991 70.9716 53.1006 70.0792 51.9961 70.0829L28.0042 70.1641C26.8972 70.1678 26.0038 71.0701 26.011 72.177L26.2878 114.905C26.2949 116.01 25.4054 116.911 24.3008 116.918L3.62593 117.052C2.52137 117.06 1.62015 116.17 1.61299 115.065L0.878552 1.61553C0.876571 1.30949 1.12296 1.05974 1.429 1.05758L1.97751 1.0537C1.97859 1.05369 1.97946 1.05282 1.97946 1.05174V1.05174C1.97946 1.05066 1.98033 1.04978 1.98142 1.04978L2.98727 1.04783L25.4994 0.90265C25.5277 0.902467 25.5507 0.925379 25.5507 0.953705V0.953705ZM27.7229 26.1622C26.6148 26.1643 25.7196 27.0669 25.7268 28.175L25.8289 44.0676C25.836 45.1698 26.7335 46.0585 27.8357 46.0547L52.0634 45.9726C53.168 45.9688 54.0604 45.0704 54.0567 43.9658L54.0028 28.1093C53.9991 27.0059 53.1025 26.114 51.9991 26.1161L27.7229 26.1622Z" fill="#25AF60"/>
</svg>
