<svg width="98" height="123" viewBox="0 0 98 123" fill="none" xmlns="http://www.w3.org/2000/svg">
<path d="M78.1473 17.1132C78.1501 18.2178 79.0478 19.111 80.1524 19.1082L95.5997 19.0694C96.7042 19.0667 97.6019 19.9598 97.6047 21.0643L97.6726 47.7528C97.6755 48.8574 96.7822 49.7551 95.6776 49.7578L79.9639 49.7968C78.8593 49.7995 77.9661 50.6972 77.9688 51.8017L78.0068 67.0488C78.0095 68.1533 78.9072 69.0466 80.0117 69.0438L95.5997 69.0049C96.7042 69.0022 97.6019 69.8954 97.6047 70.9999L97.6776 99.9785C97.6804 101.083 96.7872 101.981 95.6826 101.984L79.9219 102.023C78.8173 102.026 77.9242 102.924 77.927 104.028L77.9676 119.958C77.9704 121.063 77.0772 121.96 75.9726 121.963L28.8077 122.082C28.777 122.082 28.7522 122.107 28.7524 122.138V122.138C28.7527 122.168 28.728 122.193 28.6974 122.194L3.76952 122.355C2.66497 122.362 1.76375 121.473 1.75661 120.368L0.989229 1.67961C0.983855 0.848497 1.65323 0.170375 2.48435 0.164964L3.91037 0.15568C3.94862 0.155431 3.9795 0.12435 3.9795 0.086096V0.086096C3.9795 0.0476837 4.01062 0.0165369 4.04904 0.0165103L27.9171 1.5256e-08C27.9515 -2.38354e-05 27.9795 0.0279208 27.9795 0.0624005V0.0624005C27.9795 0.0969242 28.0075 0.124887 28.0421 0.124801L76.1045 0.00494429C77.2091 0.00218978 78.1067 0.895373 78.1095 1.99993L78.1473 17.1132ZM30.4356 72.0183C29.328 72.0211 28.4336 72.9236 28.4407 74.0312L28.577 95.1319C28.5841 96.2333 29.4805 97.1217 30.582 97.1189L67.0489 97.0265C68.1535 97.0237 69.0466 96.1261 69.0439 95.0215L68.9913 73.9209C68.9886 72.8163 68.0909 71.9231 66.9863 71.9259L30.4356 72.0183ZM30.1261 24.113C29.0184 24.1158 28.124 25.0183 28.1312 26.126L28.2537 45.0743C28.2608 46.1757 29.1573 47.0641 30.2588 47.0613L67.0489 46.9679C68.1534 46.9651 69.0466 46.0675 69.0438 44.9629L68.9962 26.0146C68.9935 24.9101 68.0958 24.0169 66.9912 24.0197L30.1261 24.113Z" fill="#25AF60"/>
</svg>
