<svg width="74" height="118" viewBox="0 0 74 118" fill="none" xmlns="http://www.w3.org/2000/svg">
<path d="M72.8548 22.4443C72.8606 23.5489 71.9698 24.449 70.8652 24.4547L27.3482 24.6801C26.2426 24.6858 25.3515 25.5874 25.3586 26.6929L25.4715 44.2526C25.4786 45.3561 26.3782 46.2454 27.4818 46.2397L57.508 46.0846C58.6125 46.0789 59.5125 46.9696 59.5183 48.0741L59.6155 66.6269C59.6213 67.7315 58.7305 68.6316 57.6259 68.6374L27.6334 68.7933C26.5278 68.7991 25.6367 69.7007 25.6438 70.8062L25.7761 91.2516C25.7833 92.3552 26.6829 93.2444 27.7865 93.2387L71.7393 93.0104C72.8438 93.0047 73.7439 93.8954 73.7497 95L73.8548 115.214C73.8606 116.318 72.9698 117.219 71.8652 117.224L2.30636 117.586C2.19534 117.586 2.10481 117.497 2.104 117.386L2.10389 117.371C2.10314 117.268 2.01926 117.185 1.91657 117.186V117.186C1.81383 117.187 1.72992 117.104 1.72926 117.001L1.13191 24.8296C1.13187 24.8224 1.12586 24.8166 1.11865 24.8169V24.8169C1.11144 24.8172 1.10543 24.8114 1.10539 24.8042L0.994134 3.42091L0.979492 1.15735C0.979488 1.15668 0.979864 1.15607 0.980463 1.15577V1.15577C0.98106 1.15547 0.981437 1.15486 0.981434 1.15419L0.98069 0.943796C0.980024 0.755777 1.13174 0.602731 1.31976 0.601753L70.7393 0.240872C71.8438 0.23513 72.7439 1.12589 72.7497 2.23044L72.8548 22.4443Z" fill="#25AF60"/>
</svg>
