<svg width="56" height="122" viewBox="0 0 56 122" fill="none" xmlns="http://www.w3.org/2000/svg">
<path d="M55.2779 20.694C55.2807 21.7986 54.3875 22.6964 53.2829 22.6991L42.0673 22.7272C40.9596 22.7299 40.0652 23.6324 40.0724 24.7401L40.5397 97.079C40.5468 98.1805 41.4431 99.0689 42.5446 99.0661L53.0995 99.0399C54.2041 99.0372 55.1017 99.9303 55.1045 101.035L55.152 119.734C55.1548 120.839 54.2616 121.736 53.157 121.739L3.03201 121.866C1.92746 121.869 1.02977 120.975 1.02696 119.871L0.979499 101.172C0.976695 100.067 1.86981 99.1694 2.97435 99.1665L14.5447 99.1368C15.6523 99.1339 16.5467 98.2314 16.5396 97.1238L16.0713 24.7849C16.0642 23.6834 15.1677 22.795 14.0662 22.7978L3.15804 22.8257C2.05346 22.8285 1.15574 21.9354 1.15294 20.8308L1.10548 2.13163C1.10267 1.02706 1.99584 0.12935 3.10042 0.12656L53.2254 -5.4516e-05C54.33 -0.0028446 55.2277 0.890306 55.2305 1.99486L55.2779 20.694Z" fill="#25AF60"/>
</svg>
