<svg width="504" height="422" viewBox="0 0 504 422" fill="none" xmlns="http://www.w3.org/2000/svg">
<path d="M278.2 170.645C278.202 171.749 277.308 172.646 276.203 172.648L247.65 172.699C246.542 172.701 245.647 173.604 245.654 174.712L246.257 267.881C246.264 268.986 245.374 269.887 244.27 269.894L222.622 270.033C221.518 270.04 220.617 269.151 220.609 268.046L220.005 174.739C219.998 173.638 219.103 172.75 218.002 172.752L192.022 172.799C190.917 172.801 190.02 171.908 190.018 170.803L189.979 149.155C189.978 148.05 190.871 147.153 191.976 147.151L276.158 147C277.262 146.998 278.159 147.892 278.161 148.996L278.2 170.645Z" fill="#25AF60"/>
<path d="M159.278 21.694C159.281 22.7986 158.388 23.6964 157.283 23.6991L146.067 23.7272C144.96 23.7299 144.065 24.6324 144.072 25.7401L144.54 98.079C144.547 99.1805 145.443 100.069 146.545 100.066L157.1 100.04C158.204 100.037 159.102 100.93 159.104 102.035L159.152 120.734C159.155 121.839 158.262 122.736 157.157 122.739L107.032 122.866C105.927 122.869 105.03 121.975 105.027 120.871L104.979 102.172C104.977 101.067 105.87 100.169 106.974 100.167L118.545 100.137C119.652 100.134 120.547 99.2314 120.54 98.1238L120.071 25.7849C120.064 24.6834 119.168 23.795 118.066 23.7978L107.158 23.8257C106.053 23.8285 105.156 22.9354 105.153 21.8308L105.105 3.13163C105.103 2.02706 105.996 1.12935 107.1 1.12656L157.225 0.999945C158.33 0.997155 159.228 1.89031 159.23 2.99486L159.278 21.694Z" fill="#25AF60"/>
<path d="M168.856 169.104C168.859 170.212 169.761 171.106 170.869 171.099L181.614 171.03C182.719 171.023 183.62 171.913 183.627 173.017L184.248 268.924C184.255 270.028 183.365 270.929 182.261 270.937L160.613 271.077C159.508 271.084 158.607 270.194 158.6 269.09L158.397 237.688C158.389 236.587 157.493 235.698 156.391 235.701L126.068 235.778C124.961 235.781 124.066 236.683 124.073 237.791L124.275 268.945C124.282 270.05 123.392 270.951 122.288 270.958L101.613 271.091C100.508 271.098 99.6073 270.209 99.6001 269.104L98.9795 173.199C98.9724 172.094 99.862 171.193 100.966 171.186L113.031 171.107C114.133 171.1 115.021 170.204 115.018 169.103L114.972 150.131C114.969 149.027 115.862 148.129 116.966 148.127L166.803 148C167.908 147.997 168.806 148.89 168.808 149.995L168.856 169.104ZM125.667 173.845C124.559 173.848 123.665 174.751 123.672 175.858L123.887 209.094C123.894 210.195 124.791 211.083 125.892 211.081L156.216 211.004C157.323 211.001 158.218 210.099 158.21 208.991L157.996 175.756C157.989 174.655 157.093 173.767 155.991 173.769L125.667 173.845Z" fill="#25AF60"/>
<path d="M279.551 299.954C279.551 299.982 279.574 300.005 279.602 300.005L314.738 299.938C315.843 299.936 316.74 300.83 316.742 301.935L316.773 318.052C316.775 319.157 317.674 320.052 318.779 320.048L331.142 320.007C332.246 320.003 333.145 320.895 333.148 322L333.232 346.817C333.235 347.922 332.343 348.82 331.238 348.824L318.925 348.865C317.82 348.869 316.928 349.768 316.932 350.872L316.97 362.054C316.973 363.158 317.872 364.051 318.976 364.047L331.142 364.007C332.246 364.003 333.145 364.895 333.148 366L333.303 411.704C333.307 412.809 332.414 413.707 331.31 413.711L310.147 413.782C309.043 413.786 308.144 412.894 308.141 411.789L308.003 371.076C307.999 369.972 307.101 369.079 305.996 369.083L282.004 369.164C280.897 369.168 280.004 370.07 280.011 371.177L280.288 413.905C280.295 415.01 279.405 415.911 278.301 415.918L257.626 416.052C256.521 416.06 255.62 415.17 255.613 414.065L254.879 300.616C254.877 300.309 255.123 300.06 255.429 300.058L255.978 300.054C255.979 300.054 255.979 300.053 255.979 300.052V300.052C255.979 300.051 255.98 300.05 255.981 300.05L256.987 300.048L279.499 299.903C279.528 299.902 279.551 299.925 279.551 299.954V299.954ZM281.723 325.162C280.615 325.164 279.72 326.067 279.727 327.175L279.829 343.068C279.836 344.17 280.733 345.058 281.836 345.055L306.063 344.973C307.168 344.969 308.06 344.07 308.057 342.966L308.003 327.109C307.999 326.006 307.102 325.114 305.999 325.116L281.723 325.162Z" fill="#25AF60"/>
<path d="M353.856 169.105C353.859 170.213 354.761 171.107 355.869 171.1L366.614 171.031C367.719 171.024 368.62 171.914 368.627 173.018L369.248 268.924C369.255 270.028 368.365 270.929 367.261 270.937L345.613 271.077C344.508 271.084 343.607 270.194 343.6 269.09L343.397 237.688C343.389 236.587 342.493 235.698 341.391 235.701L311.068 235.778C309.961 235.781 309.066 236.683 309.073 237.791L309.275 268.945C309.282 270.05 308.392 270.951 307.288 270.958L286.613 271.091C285.508 271.098 284.607 270.209 284.6 269.104L283.98 173.199C283.972 172.094 284.862 171.193 285.966 171.186L298.032 171.107C299.134 171.1 300.022 170.204 300.019 169.102L299.972 150.132C299.969 149.027 300.862 148.129 301.967 148.127L351.803 148C352.908 147.997 353.806 148.89 353.808 149.995L353.856 169.105ZM310.667 173.845C309.559 173.848 308.665 174.751 308.672 175.858L308.887 209.094C308.894 210.195 309.791 211.083 310.892 211.081L341.216 211.004C342.323 211.001 343.218 210.099 343.21 208.991L342.996 175.756C342.989 174.655 342.093 173.767 340.991 173.769L310.667 173.845Z" fill="#25AF60"/>
<path d="M72.8548 322.444C72.8606 323.549 71.9698 324.449 70.8652 324.455L27.3482 324.68C26.2426 324.686 25.3515 325.587 25.3586 326.693L25.4715 344.253C25.4786 345.356 26.3782 346.245 27.4818 346.24L57.508 346.085C58.6125 346.079 59.5125 346.97 59.5183 348.074L59.6155 366.627C59.6213 367.731 58.7305 368.632 57.6259 368.637L27.6334 368.793C26.5278 368.799 25.6367 369.701 25.6438 370.806L25.7761 391.252C25.7833 392.355 26.6829 393.244 27.7865 393.239L71.7393 393.01C72.8438 393.005 73.7439 393.895 73.7497 395L73.8548 415.214C73.8606 416.318 72.9698 417.219 71.8652 417.224L2.30636 417.586C2.19534 417.586 2.10481 417.497 2.104 417.386L2.10389 417.371C2.10314 417.268 2.01926 417.185 1.91657 417.186V417.186C1.81383 417.187 1.72992 417.104 1.72926 417.001L1.13191 324.83C1.13187 324.822 1.12586 324.817 1.11865 324.817V324.817C1.11144 324.817 1.10543 324.811 1.10539 324.804L0.994134 303.421L0.979492 301.157C0.979488 301.157 0.979864 301.156 0.980463 301.156V301.156C0.98106 301.155 0.981437 301.155 0.981434 301.154L0.98069 300.944C0.980024 300.756 1.13174 300.603 1.31976 300.602L70.7393 300.241C71.8438 300.235 72.7439 301.126 72.7497 302.23L72.8548 322.444Z" fill="#25AF60"/>
<path d="M244.855 322.203C244.861 323.308 243.97 324.208 242.865 324.214L199.348 324.439C198.243 324.445 197.351 325.347 197.359 326.452L197.472 344.012C197.479 345.115 198.378 346.005 199.482 345.999L229.508 345.844C230.612 345.838 231.512 346.729 231.518 347.833L231.615 366.386C231.621 367.491 230.731 368.391 229.626 368.397L199.633 368.552C198.528 368.558 197.637 369.46 197.644 370.565L197.776 391.011C197.783 392.114 198.683 393.004 199.786 392.998L243.739 392.77C244.844 392.764 245.744 393.655 245.75 394.759L245.855 414.973C245.861 416.078 244.97 416.978 243.865 416.983L174.306 417.345C174.195 417.346 174.105 417.256 174.104 417.145L174.104 417.13C174.103 417.027 174.019 416.944 173.917 416.945V416.945C173.814 416.946 173.73 416.863 173.729 416.761L173.132 324.589C173.132 324.582 173.126 324.576 173.119 324.576V324.576C173.111 324.576 173.105 324.571 173.105 324.563L172.994 303.18L172.979 300.917C172.979 300.916 172.98 300.915 172.98 300.915V300.915C172.981 300.915 172.981 300.914 172.981 300.913L172.981 300.703C172.98 300.515 173.132 300.362 173.32 300.361L242.739 300C243.844 299.994 244.744 300.885 244.75 301.99L244.855 322.203Z" fill="#25AF60"/>
<path d="M163.611 415.031C163.618 416.136 162.729 417.037 161.624 417.044L143.73 417.16C142.626 417.167 141.725 416.277 141.717 415.173L141.451 374.139C141.444 373.034 140.543 372.144 139.438 372.152L123.161 372.257C122.057 372.265 121.155 371.375 121.148 370.27L121.05 355.163C121.043 354.058 120.142 353.169 119.037 353.176L107.094 353.254C105.989 353.261 105.1 354.162 105.107 355.266L105.494 415.078C105.501 416.183 104.611 417.084 103.507 417.091L85.6132 417.207C84.5087 417.214 83.6075 416.324 83.6003 415.22L82.8752 303.188C82.8681 302.084 83.7577 301.183 84.8622 301.175L102.756 301.06C103.86 301.053 104.762 301.942 104.769 303.047L104.898 323.138C104.905 324.242 105.807 325.132 106.911 325.125L124.873 325.009C125.978 325.002 126.879 325.891 126.886 326.996L126.983 342.102C126.99 343.207 127.892 344.097 128.996 344.089L139.257 344.023C140.361 344.016 141.251 343.114 141.244 342.01L140.992 303.141C140.985 302.037 141.875 301.136 142.979 301.129L160.873 301.013C161.978 301.006 162.879 301.895 162.886 303L163.611 415.031Z" fill="#25AF60"/>
<path d="M28.9072 148C28.9227 148 28.937 148.006 28.9472 148.017C28.9572 148.027 28.9602 148.041 28.9628 148.055V148.055C28.9654 148.07 28.9687 148.085 28.9796 148.095C28.9896 148.105 29.003 148.11 29.0176 148.11L70.9101 148.005C72.0147 148.002 72.9122 148.895 72.915 150L72.9658 170.049C72.9686 171.153 73.8661 172.047 74.9707 172.044L86.7051 172.015H86.708V172.015C87.811 172.012 88.7073 172.904 88.7101 174.007L88.7178 177.004L88.8838 242.783L88.8952 247.147C88.898 248.252 88.0048 249.15 86.9002 249.152L74.9219 249.183C73.8191 249.187 72.9279 250.084 72.9306 251.187L72.9736 267.981C72.9764 269.086 72.0831 269.983 70.9785 269.986L29.8037 270.09C29.7902 270.09 29.7781 270.095 29.769 270.104C29.7586 270.113 29.7555 270.128 29.7528 270.142V270.142C29.7503 270.155 29.7473 270.169 29.7376 270.179C29.7282 270.188 29.7152 270.193 29.7012 270.193L4.76951 270.355C3.66497 270.363 2.76396 269.473 2.75682 268.368L1.99217 150.175C1.98503 149.07 2.87494 148.169 3.97947 148.162L28.9072 148ZM31.1455 175.087C30.0379 175.09 29.1432 175.992 29.1504 177.1L29.5644 241.117C29.5716 242.219 30.4678 243.107 31.5693 243.104L62.1582 243.026C63.2627 243.023 64.1561 242.126 64.1533 241.021L63.9912 177.004C63.9884 175.899 63.0909 175.006 61.9863 175.009L31.1455 175.087Z" fill="#25AF60"/>
<path d="M246.533 23.9916C246.538 25.0961 245.646 25.9953 244.542 25.9999L191.971 26.2205C190.87 26.2251 189.979 27.1195 189.98 28.221L189.997 97.1831C189.997 98.2895 190.896 99.1855 192.002 99.1826L224.008 99.0993C225.109 99.0964 226.001 98.2029 226.002 97.1011L226.022 75.5091C226.023 74.4007 225.123 73.5029 224.014 73.5072L210.088 73.5618C208.984 73.5662 208.085 72.6742 208.081 71.5696L207.987 47.2376C207.982 46.1331 208.874 45.2342 209.979 45.2299L247.882 45.0833C248.987 45.079 249.886 45.971 249.89 47.0755L249.936 58.9624C249.936 58.9905 249.959 59.0132 249.987 59.0135V59.0135C250.015 59.0138 250.038 59.0367 250.038 59.0649L249.979 122.404C249.979 122.505 249.897 122.587 249.796 122.587V122.587C249.694 122.586 249.612 122.669 249.613 122.77L249.613 122.81C249.613 122.934 249.514 123.034 249.391 123.034L188.041 123.193C186.937 123.196 186.039 122.303 186.036 121.199L185.993 104.862C185.99 103.759 185.095 102.867 183.993 102.867L167.999 102.871C166.894 102.871 165.998 101.976 165.998 100.871L165.979 24.9974C165.979 23.8928 166.874 22.9972 167.979 22.9969L182.516 22.9931C183.624 22.9928 184.52 22.0923 184.516 20.9847L184.445 4.25224C184.441 3.14769 185.332 2.24852 186.437 2.24388L244.441 1.99996C245.545 1.99531 246.445 2.88699 246.449 3.99156L246.533 23.9916Z" fill="#25AF60"/>
<path d="M423.533 321.992C423.538 323.096 422.646 323.995 421.542 324L368.971 324.221C367.87 324.225 366.979 325.12 366.98 326.221L366.997 395.183C366.997 396.29 367.896 397.186 369.002 397.183L401.008 397.099C402.109 397.096 403.001 396.203 403.002 395.101L403.022 373.509C403.023 372.401 402.123 371.503 401.014 371.507L387.088 371.562C385.984 371.566 385.085 370.674 385.081 369.57L384.987 345.238C384.982 344.133 385.874 343.234 386.979 343.23L424.882 343.083C425.987 343.079 426.886 343.971 426.89 345.076L426.936 356.962C426.936 356.991 426.959 357.013 426.987 357.014V357.014C427.015 357.014 427.038 357.037 427.038 357.065L426.979 420.404C426.979 420.505 426.897 420.587 426.796 420.587V420.587C426.694 420.587 426.612 420.669 426.613 420.77L426.613 420.811C426.613 420.934 426.514 421.034 426.391 421.034L365.041 421.193C363.937 421.196 363.039 420.303 363.036 419.199L362.993 402.862C362.99 401.759 362.095 400.867 360.993 400.867L344.999 400.871C343.894 400.871 342.998 399.976 342.998 398.871L342.979 322.997C342.979 321.893 343.874 320.997 344.979 320.997L359.516 320.993C360.624 320.993 361.52 320.092 361.516 318.985L361.445 302.252C361.441 301.148 362.332 300.249 363.437 300.244L421.441 300C422.545 299.995 423.445 300.887 423.449 301.992L423.533 321.992Z" fill="#25AF60"/>
<path d="M503.31 366.479C503.31 366.603 503.209 366.703 503.086 366.703V366.703C502.962 366.703 502.862 366.803 502.862 366.927L502.862 366.975C502.862 367.125 502.739 367.247 502.589 367.246L479.042 367.163C477.931 367.159 477.029 368.063 477.035 369.175L477.29 411.875C477.296 412.98 476.406 413.88 475.302 413.887L457.4 413.994C456.296 414.001 455.395 413.11 455.389 412.006L455.133 369.061C455.126 367.964 454.237 367.077 453.14 367.073L433.98 367.007C432.875 367.003 431.983 366.105 431.986 365L431.994 362.808L431.98 303.006C431.98 301.901 432.875 301.006 433.979 301.005L449.618 301.001C450.723 301.001 451.618 301.896 451.619 303.001L451.628 344.185C451.629 345.287 452.52 346.181 453.621 346.185L477.516 346.268C478.623 346.272 479.523 345.375 479.523 344.268L479.513 303.006C479.513 301.901 480.408 301.006 481.513 301.005L501.294 301C502.399 301 503.294 301.895 503.294 303L503.31 366.479Z" fill="#25AF60"/>
<path d="M79.1473 17.1132C79.1501 18.2178 80.0478 19.111 81.1524 19.1082L96.5997 19.0694C97.7042 19.0667 98.6019 19.9598 98.6047 21.0643L98.6726 47.7528C98.6755 48.8574 97.7822 49.7551 96.6776 49.7578L80.9639 49.7968C79.8593 49.7995 78.9661 50.6972 78.9688 51.8017L79.0068 67.0488C79.0095 68.1533 79.9072 69.0466 81.0117 69.0438L96.5997 69.0049C97.7042 69.0022 98.6019 69.8954 98.6047 70.9999L98.6776 99.9785C98.6804 101.083 97.7872 101.981 96.6826 101.984L80.9219 102.023C79.8173 102.026 78.9242 102.924 78.927 104.028L78.9676 119.958C78.9704 121.063 78.0772 121.96 76.9726 121.963L29.8077 122.082C29.777 122.082 29.7522 122.107 29.7524 122.138V122.138C29.7527 122.168 29.728 122.193 29.6974 122.194L4.76952 122.355C3.66497 122.362 2.76375 121.473 2.75661 120.368L1.98923 1.67961C1.98386 0.848497 2.65323 0.170375 3.48435 0.164964L4.91037 0.15568C4.94862 0.155431 4.9795 0.12435 4.9795 0.086096V0.086096C4.9795 0.0476837 5.01062 0.0165369 5.04904 0.0165103L28.9171 1.5256e-08C28.9515 -2.38354e-05 28.9795 0.0279208 28.9795 0.0624005V0.0624005C28.9795 0.0969242 29.0075 0.124887 29.0421 0.124801L77.1045 0.00494429C78.2091 0.00218978 79.1067 0.895373 79.1095 1.99993L79.1473 17.1132ZM31.4356 72.0183C30.328 72.0211 29.4336 72.9236 29.4407 74.0312L29.577 95.1319C29.5841 96.2333 30.4805 97.1217 31.582 97.1189L68.0489 97.0265C69.1535 97.0237 70.0466 96.1261 70.0439 95.0215L69.9913 73.9209C69.9886 72.8163 69.0909 71.9231 67.9863 71.9259L31.4356 72.0183ZM31.1261 24.113C30.0184 24.1158 29.124 25.0183 29.1312 26.126L29.2537 45.0743C29.2608 46.1757 30.1573 47.0641 31.2588 47.0613L68.0489 46.9679C69.1534 46.9651 70.0466 46.0675 70.0438 44.9629L69.9962 26.0146C69.9935 24.9101 69.0958 24.0169 67.9912 24.0197L31.1261 24.113Z" fill="#25AF60"/>
</svg>
