<svg width="326" height="414" viewBox="0 0 326 414" fill="none" xmlns="http://www.w3.org/2000/svg">
<path d="M93.6807 0C95.8018 0.000167449 97.8368 0.843059 99.3369 2.34277L105.65 8.65625C107.075 10.0814 107.906 11.9891 107.985 13.9951L107.993 14.0029V137.991C107.993 139.096 108.889 139.991 109.993 139.991H214.985C216.09 139.991 216.985 139.096 216.985 137.991V14.0029L216.993 13.9951C217.073 11.9893 217.903 10.0814 219.328 8.65625L225.642 2.34277C227.142 0.843028 229.177 0.000350683 231.298 0H256.669C258.79 6.15884e-05 260.825 0.843112 262.325 2.34277L268.639 8.65625C270.064 10.0814 270.894 11.989 270.974 13.9951L270.981 14.0029V137.991C270.981 139.096 271.877 139.991 272.981 139.991H309.979C318.815 139.991 325.979 147.155 325.979 155.991V289.578C325.979 293.688 324.397 297.641 321.562 300.616L249.713 376.014C246.693 379.182 242.507 380.976 238.13 380.976H190.003L190.021 409.252L189.224 409.253C188.59 410.276 187.611 411.077 186.415 411.481L180.269 413.56C179.445 413.838 178.581 413.981 177.712 413.981L147.331 414C147.13 414 146.929 413.968 146.738 413.903L136.025 410.297L136.007 380.976H87.8486C83.4718 380.975 79.2852 379.182 76.2656 376.014L4.41699 300.616C1.58189 297.641 0 293.688 0 289.578V155.991C0 147.155 7.16373 139.992 16 139.991H51.9971C53.1016 139.991 53.9971 139.096 53.9971 137.991V11.8262C53.9972 11.296 54.2082 10.7871 54.583 10.4121L63.3857 1.61035C64.4168 0.579683 65.8156 0.000292894 67.2734 0H93.6807Z" fill="#25AF60"/>
<path d="M124.997 253.568C129.415 253.568 132.997 257.15 132.997 261.568V281.679C132.997 283.458 132.404 285.186 131.312 286.59L125.622 293.905C124.106 295.854 121.775 296.994 119.307 296.994H98.6895C96.2209 296.994 93.8906 295.854 92.375 293.905L86.6855 286.59C85.5933 285.186 85 283.458 85 281.679V261.568C85 257.15 88.5817 253.568 93 253.568H124.997Z" fill="#0B1F26"/>
<path d="M232.997 254C237.415 254 240.997 257.582 240.997 262V282.11C240.997 283.889 240.404 285.617 239.312 287.021L233.622 294.337C232.106 296.286 229.775 297.426 227.307 297.426H206.689C204.221 297.426 201.891 296.285 200.375 294.337L194.686 287.021C193.593 285.617 193 283.889 193 282.11V262C193 257.582 196.582 254 201 254H232.997Z" fill="#0B1F26"/>
</svg>
